HIERARCHY
ROOT Hips
{
  OFFSET 5.72205e-005 65.662 3.42586
  CHANNELS 6 Xposition Yposition Zposition Zrotation Xrotation Yrotation
  JOINT Chest
  {
    OFFSET 0 8.7983 -4.7612
    CHANNELS 6 Xposition Yposition Zposition Zrotation Xrotation Yrotation
    JOINT Chest2
    {
      OFFSET 0 8.0291 0.4195
      CHANNELS 6 Xposition Yposition Zposition Zrotation Xrotation Yrotation
      JOINT Chest3
      {
        OFFSET 0 9.9351 -2.2114
        CHANNELS 6 Xposition Yposition Zposition Zrotation Xrotation Yrotation
        JOINT Neck
        {
          OFFSET 0 22.3885 -0.4656
          CHANNELS 6 Xposition Yposition Zposition Zrotation Xrotation Yrotation
          JOINT Head
          {
            OFFSET -0.0001 12.643 3.4389
            CHANNELS 6 Xposition Yposition Zposition Zrotation Xrotation Yrotation
            End Site
            {
              OFFSET 0.0001 17.6655 0.5274
            }
          }
        }
        JOINT LeftCollar
        {
          OFFSET 2.2603 21.606 7.4023
          CHANNELS 6 Xposition Yposition Zposition Zrotation Xrotation Yrotation
          JOINT LeftShoulder
          {
            OFFSET 13.5163 -1.1332 -5.0146
            CHANNELS 6 Xposition Yposition Zposition Zrotation Xrotation Yrotation
            JOINT LeftElbow
            {
              OFFSET -0.0995 -28.05 -0.2431
              CHANNELS 6 Xposition Yposition Zposition Zrotation Xrotation Yrotation
              JOINT LeftWrist
              {
                OFFSET 0.0679 -23.3996 -0.1402
                CHANNELS 6 Xposition Yposition Zposition Zrotation Xrotation Yrotation
                JOINT LeftFinger1
                {
                  OFFSET 0.7932 -9.069 2.5189
                  CHANNELS 6 Xposition Yposition Zposition Zrotation Xrotation Yrotation
                  JOINT LeftFinger11
                  {
                    OFFSET -0.8272 -3.3923 0.5977
                    CHANNELS 6 Xposition Yposition Zposition Zrotation Xrotation Yrotation
                    JOINT LeftFinger12
                    {
                      OFFSET -0.5649 -2.3158 0.4082
                      CHANNELS 6 Xposition Yposition Zposition Zrotation Xrotation Yrotation
                      End Site
                      {
                        OFFSET -0.4919 -1.6479 0.2673
                      }
                    }
                  }
                }
                JOINT LeftFinger2
                {
                  OFFSET 0.9159 -9.2044 0.2193
                  CHANNELS 6 Xposition Yposition Zposition Zrotation Xrotation Yrotation
                  JOINT LeftFinger21
                  {
                    OFFSET 0.0117 -4.1944 -0.0248
                    CHANNELS 6 Xposition Yposition Zposition Zrotation Xrotation Yrotation
                    JOINT LeftFinger22
                    {
                      OFFSET 0.0071 -2.3249 -0.0142
                      CHANNELS 6 Xposition Yposition Zposition Zrotation Xrotation Yrotation
                      End Site
                      {
                        OFFSET -0.1475 -2.0882 0.0028
                      }
                    }
                  }
                }
                JOINT LeftFinger3
                {
                  OFFSET 0.6113 -8.7231 -2.0637
                  CHANNELS 6 Xposition Yposition Zposition Zrotation Xrotation Yrotation
                  JOINT LeftFinger31
                  {
                    OFFSET -0.1927 -3.8059 -0.2383
                    CHANNELS 6 Xposition Yposition Zposition Zrotation Xrotation Yrotation
                    JOINT LeftFinger32
                    {
                      OFFSET -0.1091 -2.1688 -0.1362
                      CHANNELS 6 Xposition Yposition Zposition Zrotation Xrotation Yrotation
                      End Site
                      {
                        OFFSET -0.2358 -1.9176 -0.0906
                      }
                    }
                  }
                }
                JOINT LeftFinger4
                {
                  OFFSET -0.6151 -8.0947 -3.5641
                  CHANNELS 6 Xposition Yposition Zposition Zrotation Xrotation Yrotation
                  JOINT LeftFinger41
                  {
                    OFFSET -0.4882 -2.341 -0.6462
                    CHANNELS 6 Xposition Yposition Zposition Zrotation Xrotation Yrotation
                    JOINT LeftFinger42
                    {
                      OFFSET -0.3575 -1.7167 -0.4742
                      CHANNELS 6 Xposition Yposition Zposition Zrotation Xrotation Yrotation
                      End Site
                      {
                        OFFSET -0.4187 -1.5237 -0.3496
                      }
                    }
                  }
                }
                JOINT LeftFinger0
                {
                  OFFSET -1.42 -1.8761 1.4223
                  CHANNELS 6 Xposition Yposition Zposition Zrotation Xrotation Yrotation
                  JOINT LeftFinger01
                  {
                    OFFSET -1.1471 -3.4929 2.6334
                    CHANNELS 6 Xposition Yposition Zposition Zrotation Xrotation Yrotation
                    JOINT LeftFinger02
                    {
                      OFFSET -0.823 -2.3 1.6571
                      CHANNELS 6 Xposition Yposition Zposition Zrotation Xrotation Yrotation
                      End Site
                      {
                        OFFSET -0.5822 -1.6914 1.1582
                      }
                    }
                  }
                }
              }
            }
          }
        }
        JOINT RightCollar
        {
          OFFSET -2.2603 21.606 7.4023
          CHANNELS 6 Xposition Yposition Zposition Zrotation Xrotation Yrotation
          JOINT RightShoulder
          {
            OFFSET -13.5187 -1.1334 -5.0155
            CHANNELS 6 Xposition Yposition Zposition Zrotation Xrotation Yrotation
            JOINT RightElbow
            {
              OFFSET 0.0994 -28.0499 -0.2431
              CHANNELS 6 Xposition Yposition Zposition Zrotation Xrotation Yrotation
              JOINT RightWrist
              {
                OFFSET -0.0679 -23.3996 -0.1402
                CHANNELS 6 Xposition Yposition Zposition Zrotation Xrotation Yrotation
                JOINT RightFinger1
                {
                  OFFSET -0.7932 -9.0691 2.5189
                  CHANNELS 6 Xposition Yposition Zposition Zrotation Xrotation Yrotation
                  JOINT RightFinger11
                  {
                    OFFSET 0.8272 -3.3923 0.5977
                    CHANNELS 6 Xposition Yposition Zposition Zrotation Xrotation Yrotation
                    JOINT RightFinger12
                    {
                      OFFSET 0.565 -2.3158 0.4082
                      CHANNELS 6 Xposition Yposition Zposition Zrotation Xrotation Yrotation
                      End Site
                      {
                        OFFSET 0.4919 -1.6479 0.2673
                      }
                    }
                  }
                }
                JOINT RightFinger2
                {
                  OFFSET -0.916 -9.2044 0.2193
                  CHANNELS 6 Xposition Yposition Zposition Zrotation Xrotation Yrotation
                  JOINT RightFinger21
                  {
                    OFFSET -0.0117 -4.1944 -0.0248
                    CHANNELS 6 Xposition Yposition Zposition Zrotation Xrotation Yrotation
                    JOINT RightFinger22
                    {
                      OFFSET -0.0071 -2.3249 -0.0142
                      CHANNELS 6 Xposition Yposition Zposition Zrotation Xrotation Yrotation
                      End Site
                      {
                        OFFSET 0.1475 -2.0882 0.0028
                      }
                    }
                  }
                }
                JOINT RightFinger3
                {
                  OFFSET -0.6113 -8.7231 -2.0637
                  CHANNELS 6 Xposition Yposition Zposition Zrotation Xrotation Yrotation
                  JOINT RightFinger31
                  {
                    OFFSET 0.1927 -3.8059 -0.2383
                    CHANNELS 6 Xposition Yposition Zposition Zrotation Xrotation Yrotation
                    JOINT RightFinger32
                    {
                      OFFSET 0.1091 -2.1688 -0.1362
                      CHANNELS 6 Xposition Yposition Zposition Zrotation Xrotation Yrotation
                      End Site
                      {
                        OFFSET 0.2358 -1.9176 -0.0906
                      }
                    }
                  }
                }
                JOINT RightFinger4
                {
                  OFFSET 0.6151 -8.0947 -3.564
                  CHANNELS 6 Xposition Yposition Zposition Zrotation Xrotation Yrotation
                  JOINT RightFinger41
                  {
                    OFFSET 0.4882 -2.341 -0.6462
                    CHANNELS 6 Xposition Yposition Zposition Zrotation Xrotation Yrotation
                    JOINT RightFinger42
                    {
                      OFFSET 0.3574 -1.7166 -0.4742
                      CHANNELS 6 Xposition Yposition Zposition Zrotation Xrotation Yrotation
                      End Site
                      {
                        OFFSET 0.4187 -1.5237 -0.3496
                      }
                    }
                  }
                }
                JOINT RightFinger0
                {
                  OFFSET 1.4199 -1.8761 1.4221
                  CHANNELS 6 Xposition Yposition Zposition Zrotation Xrotation Yrotation
                  JOINT RightFinger01
                  {
                    OFFSET 1.1472 -3.4929 2.6336
                    CHANNELS 6 Xposition Yposition Zposition Zrotation Xrotation Yrotation
                    JOINT RightFinger02
                    {
                      OFFSET 0.8229 -2.3 1.6571
                      CHANNELS 6 Xposition Yposition Zposition Zrotation Xrotation Yrotation
                      End Site
                      {
                        OFFSET 0.5822 -1.6914 1.1582
                      }
                    }
                  }
                }
              }
            }
          }
        }
      }
    }
  }
  JOINT RightHip
  {
    OFFSET -9.412 3.9771 -0.7758
    CHANNELS 6 Xposition Yposition Zposition Zrotation Xrotation Yrotation
    JOINT RightKnee
    {
      OFFSET -0.7531 -40.938 0
      CHANNELS 6 Xposition Yposition Zposition Zrotation Xrotation Yrotation
      JOINT RightAnkle
      {
        OFFSET 0 -40.1986 0
        CHANNELS 6 Xposition Yposition Zposition Zrotation Xrotation Yrotation
        JOINT RightToe
        {
          OFFSET 0 -4.4182 9.239
          CHANNELS 6 Xposition Yposition Zposition Zrotation Xrotation Yrotation
          End Site
          {
            OFFSET 0 0 6.1981
          }
        }
      }
    }
  }
  JOINT LeftHip
  {
    OFFSET 9.4119 3.9773 -0.7758
    CHANNELS 6 Xposition Yposition Zposition Zrotation Xrotation Yrotation
    JOINT LeftKnee
    {
      OFFSET 0.7532 -40.9383 0
      CHANNELS 6 Xposition Yposition Zposition Zrotation Xrotation Yrotation
      JOINT LeftAnkle
      {
        OFFSET 0 -40.1986 0
        CHANNELS 6 Xposition Yposition Zposition Zrotation Xrotation Yrotation
        JOINT LeftToe
        {
          OFFSET 0 -4.4182 9.239
          CHANNELS 6 Xposition Yposition Zposition Zrotation Xrotation Yrotation
          End Site
          {
            OFFSET 0 0 6.1981
          }
        }
      }
    }
  }
}
MOTION
Frames:	4
Frame Time:	0.0333333
5.72205e-005 65.662 3.42586 0 0 -0 0 8.7983 -4.7612 0 0 -0 0 8.0291 0.4195 0 0 -0 0 9.9351 -2.2114 0 0 -0 0 22.3885 -0.4656 0 0 -0 -0.0001 12.643 3.4389 0 0 -0 2.2603 21.606 7.4023 0 0 -12.5014 13.5163 -1.1332 -5.0146 88.1196 14.2451 10.6914 -0.0995 -28.05 -0.2431 -0.00160068 -0.00239207 0.000740045 0.0679 -23.3996 -0.1402 -8.4365e-005 7.00714e-005 -9.52055e-007 0.7932 -9.069 2.5189 9.93923e-017 -1.98785e-016 -1.59028e-015 -0.8272 -3.3923 0.5977 9.93923e-017 -5.96354e-016 -1.59028e-015 -0.5649 -2.3158 0.4082 -9.93923e-017 -5.96354e-016 -1.59028e-015 0.9159 -9.2044 0.2193 9.93923e-017 -1.98785e-016 -1.59028e-015 0.0117 -4.1944 -0.0248 -0.0128176 0.00232552 8.52707e-005 0.0071 -2.3249 -0.0142 9.93923e-017 5.96354e-016 -0 0.6113 -8.7231 -2.0637 9.93923e-017 -1.98785e-016 -1.59028e-015 -0.1927 -3.8059 -0.2383 -0.0160551 0.00299681 0.000857156 -0.1091 -2.1688 -0.1362 -2.48481e-016 0 3.18055e-015 -0.6151 -8.0947 -3.5641 9.93923e-017 -1.98785e-016 -1.59028e-015 -0.4882 -2.341 -0.6462 -0.0125865 0.0031206 0.00282719 -0.3575 -1.7167 -0.4742 0 1.98785e-016 -0 -1.42 -1.8761 1.4223 9.93923e-017 -1.98785e-016 -1.59028e-015 -1.1471 -3.4929 2.6334 9.93923e-017 -5.96354e-016 -1.59028e-015 -0.823 -2.3 1.6571 -9.93923e-017 -5.96354e-016 -1.59028e-015 -2.2603 21.606 7.4023 -0.865644 0.16582 7.03859 -13.5187 -1.1334 -5.0155 -88.0329 10.2057 -10.5567 0.0994 -28.0499 -0.2431 0.0015593 -0.00248883 -0.000788628 -0.0679 -23.3996 -0.1402 7.87605e-005 4.10553e-005 1.24965e-005 -0.7932 -9.0691 2.5189 -3.97569e-016 -7.95139e-016 3.18055e-015 0.8272 -3.3923 0.5977 -1.98785e-016 -3.97569e-016 3.18055e-015 0.565 -2.3158 0.4082 -1.98785e-016 0 3.18055e-015 -0.916 -9.2044 0.2193 -3.97569e-016 -7.95139e-016 3.18055e-015 -0.0117 -4.1944 -0.0248 0.0129473 0.00231697 -8.70038e-005 -0.0071 -2.3249 -0.0142 9.93923e-017 -7.95139e-016 1.59028e-015 -0.6113 -8.7231 -2.0637 -3.97569e-016 -7.95139e-016 3.18055e-015 0.1927 -3.8059 -0.2383 0.0163314 0.00303369 -0.000872333 0.1091 -2.1688 -0.1362 3.97569e-016 7.95139e-016 -3.18055e-015 0.6151 -8.0947 -3.564 -3.97569e-016 -7.95139e-016 3.18055e-015 0.4882 -2.341 -0.6462 0.0145763 0.00367772 -0.00326275 0.3574 -1.7166 -0.4742 9.93923e-017 -3.97569e-016 -0 1.4199 -1.8761 1.4221 -3.97569e-016 -7.95139e-016 3.18055e-015 1.1472 -3.4929 2.6336 -1.98785e-016 -3.97569e-016 3.18055e-015 0.8229 -2.3 1.6571 -1.98785e-016 0 3.18055e-015 -9.412 3.9771 -0.7758 3.42482 1.32465 -0.0626183 -0.7531 -40.938 0 0.000117508 0.717283 0.000978199 0 -40.1986 0 -3.4257 -2.04197 -0.0604716 8.88178e-016 -4.4182 9.239 6.47761e-025 0 -0 9.4119 3.9773 -0.7758 -3.42483 1.34017 0.0627307 0.7532 -40.9383 -2.22045e-016 -0.000193936 0.682302 -0.0013703 -8.88179e-016 -40.1986 0 3.42574 -2.02253 0.0595886 -8.88178e-016 -4.4182 9.239 -8.45714e-024 0 -7.40531e-025 
39.8401 13.565 21.4832 7.52726e-008 60.9989 -3.18456e-008 -7.10543e-015 8.7983 -4.7612 -0.331007 17.6731 -0.0769204 7.10543e-015 8.0291 0.4195 -0.689037 35.3463 -0.043574 0 9.9351 -2.2114 -0.689031 35.3461 -0.0435754 -7.10543e-015 22.3885 -0.4656 -16.1189 -30.1502 38.0215 -0.0001 12.643 3.4389 12.071 -14.4191 21.4219 2.2603 21.606 7.4023 -8.64059 -9.57022 -17.3851 13.5163 -1.1332 -5.0146 75.1336 -64.2339 76.8037 -0.0995 -28.05 -0.2431 -54.7605 -9.5928 -90.6992 0.0679 -23.3996 -0.1402 -70.3885 -20.1262 9.82281 0.7932 -9.069 2.5189 5.05847e-006 -2.13095e-006 3.57098e-007 -0.8272 -3.3923 0.5977 1.59028e-015 0 -0 -0.5649 -2.3158 0.4082 3.15866e-006 5.07313e-007 3.71293e-007 0.9159 -9.2044 0.2193 5.05847e-006 -2.13095e-006 3.57098e-007 0.0117 -4.1944 -0.0248 -0.0128397 0.00233063 8.0906e-005 0.0071 -2.3249 -0.0142 7.91693e-006 8.54568e-008 4.52878e-006 0.6113 -8.7231 -2.0637 5.05847e-006 -2.13095e-006 3.57098e-007 -0.1927 -3.8059 -0.2383 -0.0160963 0.00300214 0.000852553 -0.1091 -2.1688 -0.1362 4.30709e-006 -2.13131e-006 1.80307e-006 -0.6151 -8.0947 -3.5641 5.05847e-006 -2.13095e-006 3.57098e-007 -0.4882 -2.341 -0.6462 -0.0125926 0.00311929 0.00282448 -0.3575 -1.7167 -0.4742 1.25238e-005 -4.54394e-007 2.53194e-006 -1.42 -1.8761 1.4223 5.05847e-006 -2.13095e-006 3.57098e-007 -1.1471 -3.4929 2.6334 1.59028e-015 0 -0 -0.823 -2.3 1.6571 3.15866e-006 5.07313e-007 3.71293e-007 -2.2603 21.606 7.4023 7.77341 -9.45455 12.0418 -13.5187 -1.1334 -5.0155 -68.8647 -68.1214 -71.1472 0.0994 -28.0499 -0.2431 54.5979 -11.4792 91.5033 -0.0679 -23.3996 -0.1402 70.9669 -19.2119 -8.7108 -0.7932 -9.0691 2.5189 7.06053e-006 3.71975e-006 8.8406e-006 0.8272 -3.3923 0.5977 1.83857e-006 -7.24144e-007 2.44475e-008 0.565 -2.3158 0.4082 0 0 -0 -0.916 -9.2044 0.2193 7.06053e-006 3.71975e-006 8.8406e-006 -0.0117 -4.1944 -0.0248 0.0129638 0.00231929 -8.68436e-005 -0.0071 -2.3249 -0.0142 4.77083e-015 3.18055e-015 -0 -0.6113 -8.7231 -2.0637 7.06053e-006 3.71975e-006 8.8406e-006 0.1927 -3.8059 -0.2383 0.0163439 0.00303535 -0.000878031 0.1091 -2.1688 -0.1362 -1.59028e-015 0 6.36111e-015 0.6151 -8.0947 -3.564 7.06053e-006 3.71975e-006 8.8406e-006 0.4882 -2.341 -0.6462 0.014636 0.0036876 -0.00327718 0.3574 -1.7166 -0.4742 -3.18055e-015 -9.54166e-015 -0 1.4199 -1.8761 1.4221 7.06053e-006 3.71975e-006 8.8406e-006 1.1472 -3.4929 2.6336 1.83857e-006 -7.24144e-007 2.44475e-008 0.8229 -2.3 1.6571 0 0 -0 -9.412 3.9771 -0.7758 175.467 -83.6326 175.247 -0.7531 -40.938 0 -177.649 22.009 169.438 3.55272e-015 -40.1986 0 12.7045 -28.0845 20.9077 3.55271e-015 -4.4182 9.239 -4.66456e-007 6.61998e-008 8.29028e-007 9.4119 3.9773 -0.7758 -175.518 -83.4265 -175.304 0.7532 -40.9383 0 177.665 21.7885 -169.466 0 -40.1986 -1.77636e-015 -12.7111 -28.0873 -20.9133 -7.10543e-015 -4.4182 9.239 -9.80234e-008 -1.05847e-005 2.22869e-006 
39.8401 13.6097 21.5222 1.91688e-007 61.4985 -1.96647e-007 0 8.7983 -4.7612 -0.330565 17.5065 -0.0781425 0 8.0291 0.4195 -0.686783 35.0133 -0.0477198 0 9.9351 -2.2114 -0.686778 35.013 -0.0477213 0 22.3885 -0.4656 -15.5293 -30.1121 38.3356 -0.0001 12.643 3.4389 12.4443 -14.9369 21.6573 2.2603 21.606 7.4023 -8.63311 -9.55247 -17.3834 13.5163 -1.1332 -5.0146 75.1336 -64.2339 76.8037 -0.0995 -28.05 -0.2431 -54.3421 -9.59318 -90.6216 0.0679 -23.3996 -0.1402 -70.5727 -20.4328 9.38096 0.7932 -9.069 2.5189 -1.59028e-015 6.36111e-015 -1.59028e-015 -0.8272 -3.3923 0.5977 -5.05734e-006 8.29672e-007 -3.58299e-007 -0.5649 -2.3158 0.4082 1.59028e-015 3.18055e-015 -0 0.9159 -9.2044 0.2193 -1.59028e-015 6.36111e-015 -1.59028e-015 0.0117 -4.1944 -0.0248 -0.0128237 0.00232547 8.43382e-005 0.0071 -2.3249 -0.0142 7.46747e-006 -2.71274e-006 2.16834e-006 0.6113 -8.7231 -2.0637 -1.59028e-015 6.36111e-015 -1.59028e-015 -0.1927 -3.8059 -0.2383 -0.0160593 0.00300116 0.000858132 -0.1091 -2.1688 -0.1362 -1.59028e-015 0 1.27222e-014 -0.6151 -8.0947 -3.5641 -1.59028e-015 6.36111e-015 -1.59028e-015 -0.4882 -2.341 -0.6462 -0.0125726 0.0031208 0.00282036 -0.3575 -1.7167 -0.4742 5.87085e-006 -1.61118e-006 -1.62911e-006 -1.42 -1.8761 1.4223 -1.59028e-015 6.36111e-015 -1.59028e-015 -1.1471 -3.4929 2.6334 -5.05734e-006 8.29672e-007 -3.58299e-007 -0.823 -2.3 1.6571 1.59028e-015 3.18055e-015 -0 -2.2603 21.606 7.4023 7.67263 -9.12319 12.429 -13.5187 -1.1334 -5.0155 -69.1232 -67.982 -71.408 0.0994 -28.0499 -0.2431 53.5064 -11.4464 91.2872 -0.0679 -23.3996 -0.1402 71.0969 -19.5582 -7.95234 -0.7932 -9.0691 2.5189 0 1.59028e-014 -0 0.8272 -3.3923 0.5977 -3.18055e-015 9.54166e-015 -0 0.565 -2.3158 0.4082 6.36111e-015 6.36111e-015 -0 -0.916 -9.2044 0.2193 0 1.59028e-014 -0 -0.0117 -4.1944 -0.0248 0.0129424 0.00230741 -8.5765e-005 -0.0071 -2.3249 -0.0142 3.18055e-015 0 3.18055e-015 -0.6113 -8.7231 -2.0637 0 1.59028e-014 -0 0.1927 -3.8059 -0.2383 0.0163465 0.00303528 -0.00087162 0.1091 -2.1688 -0.1362 -6.36111e-015 -6.36111e-015 -0 0.6151 -8.0947 -3.564 0 1.59028e-014 -0 0.4882 -2.341 -0.6462 0.0145741 0.00367262 -0.00325511 0.3574 -1.7166 -0.4742 -0 -3.18055e-015 -0 1.4199 -1.8761 1.4221 0 1.59028e-014 -0 1.1472 -3.4929 2.6336 -3.18055e-015 9.54166e-015 -0 0.8229 -2.3 1.6571 6.36111e-015 6.36111e-015 -0 -9.412 3.9771 -0.7758 175.993 -83.1807 175.689 -0.7531 -40.938 0 -177.652 21.8394 169.444 -3.55271e-015 -40.1986 7.10543e-015 12.7036 -28.0798 20.9038 -3.55271e-015 -4.4182 9.239 -7.95139e-016 0 1.46604e-015 9.4119 3.9773 -0.7758 -175.896 -83.1663 -175.596 0.7532 -40.9383 0 177.666 21.8106 -169.46 0 -40.1986 3.55271e-015 -12.7102 -28.0827 -20.9094 7.10543e-015 -4.4182 9.239 -1.59028e-015 -4.88989e-009 -1.2424e-015 
39.8401 13.655 21.5616 1.88372e-007 61.9983 -1.75694e-007 -7.10543e-015 8.7983 -4.7612 -0.330126 17.3399 -0.0793637 7.10543e-015 8.0291 0.4195 -0.684567 34.6801 -0.0518384 -7.10543e-015 9.9351 -2.2114 -0.684561 34.6798 -0.0518399 -7.10543e-015 22.3885 -0.4656 -14.9399 -30.0711 38.6492 -0.0001 12.643 3.4389 12.8208 -15.4534 21.8968 2.2603 21.606 7.4023 -8.62563 -9.53469 -17.3817 13.5163 -1.1332 -5.0146 75.1335 -64.2339 76.8036 -0.0995 -28.05 -0.2431 -53.9237 -9.59307 -90.5441 0.0679 -23.3996 -0.1402 -70.7599 -20.7383 8.93706 0.7932 -9.069 2.5189 -1.59028e-015 6.36111e-015 3.18055e-015 -0.8272 -3.3923 0.5977 -3.18055e-015 3.18055e-015 1.59028e-015 -0.5649 -2.3158 0.4082 -1.76556e-031 -6.36111e-015 -1.59028e-015 0.9159 -9.2044 0.2193 -1.59028e-015 6.36111e-015 3.18055e-015 0.0117 -4.1944 -0.0248 -0.0128195 0.00232307 9.00777e-005 0.0071 -2.3249 -0.0142 -7.95139e-015 -6.36111e-015 -4.77083e-015 0.6113 -8.72309 -2.0637 -1.59028e-015 6.36111e-015 3.18055e-015 -0.1927 -3.8059 -0.2383 -0.0160448 0.00299206 0.000857947 -0.1091 -2.1688 -0.1362 1.59028e-015 0 -4.77083e-015 -0.6151 -8.0947 -3.5641 -1.59028e-015 6.36111e-015 3.18055e-015 -0.4882 -2.341 -0.6462 -0.0125813 0.00311954 0.00282368 -0.3575 -1.7167 -0.4742 1.59028e-015 0 4.77083e-015 -1.42 -1.8761 1.4223 -1.59028e-015 6.36111e-015 3.18055e-015 -1.1471 -3.4929 2.6334 -3.18055e-015 3.18055e-015 1.59028e-015 -0.823 -2.3 1.6571 -1.76556e-031 -6.36111e-015 -1.59028e-015 -2.2603 21.606 7.4023 7.56964 -8.79241 12.8166 -13.5187 -1.1334 -5.0155 -69.3784 -67.8424 -71.6657 0.0994 -28.0499 -0.2431 52.4135 -11.4094 91.0714 -0.0679 -23.3996 -0.1402 71.2321 -19.9033 -7.19081 -0.793201 -9.0691 2.5189 -1.23302e-005 -2.0344e-006 -3.34755e-006 0.827201 -3.3923 0.5977 -4.77083e-015 1.27222e-014 -6.36111e-015 0.565 -2.3158 0.4082 -3.18055e-015 0 -0 -0.916001 -9.2044 0.2193 -1.23302e-005 -2.0344e-006 -3.34755e-006 -0.0117 -4.1944 -0.0248 0.0129264 0.0023211 -8.02686e-005 -0.0071 -2.3249 -0.0142 -6.36111e-015 3.18055e-015 -3.18055e-015 -0.6113 -8.7231 -2.0637 -1.23302e-005 -2.0344e-006 -3.34755e-006 0.1927 -3.8059 -0.2383 0.0163354 0.00303619 -0.000864646 0.1091 -2.1688 -0.1362 -6.36111e-015 1.59028e-014 -6.36111e-015 0.6151 -8.0947 -3.564 -1.23302e-005 -2.0344e-006 -3.34755e-006 0.4882 -2.341 -0.6462 0.0145691 0.00367274 -0.00324741 0.3574 -1.7166 -0.4742 -3.29766e-006 4.15372e-007 -3.41847e-006 1.4199 -1.8761 1.4221 -1.23302e-005 -2.0344e-006 -3.34755e-006 1.1472 -3.4929 2.6336 -4.77083e-015 1.27222e-014 -6.36111e-015 0.822901 -2.3 1.6571 -3.18055e-015 0 -0 -9.412 3.9771 -0.7758 176.353 -82.8992 175.965 -0.7531 -40.938 0 -177.653 21.8409 169.44 3.55271e-015 -40.1986 3.55271e-015 12.7027 -28.0752 20.8998 -3.55271e-015 -4.4182 9.239 -2.04712e-006 -1.04093e-005 -2.32408e-006 9.4119 3.9773 -0.7758 -176.155 -83.0486 -175.769 0.7532 -40.9383 0 177.663 21.9756 -169.445 7.10543e-015 -40.1986 -8.88178e-016 -12.7093 -28.078 -20.9054 -7.10543e-015 -4.4182 9.239 3.42901e-007 -7.54769e-006 1.71681e-007 
